<svg width="20" height="20" viewBox="0 0 20 20" fill="none" xmlns="http://www.w3.org/2000/svg">
<g clip-path="url(#clip0_3504_8509)">
<path d="M7.46335 4.13294C7.87179 4.05649 8.28131 4.26042 8.45951 4.62901C8.50387 4.6959 8.53937 4.76805 8.56516 4.84373C8.67836 6.5911 8.79911 8.30885 8.91231 10.0266C8.90973 10.2052 8.93779 10.3829 8.99532 10.5523C9.13075 10.8856 9.46776 11.0971 9.833 11.078L15.3798 10.7226L15.4175 10.7374L15.5188 10.7447C15.7193 10.7703 15.9062 10.8619 16.0482 11.0059C16.2138 11.1739 16.3045 11.3996 16.3006 11.6333C16.0819 14.8184 13.7468 17.4796 10.5689 18.1652C7.39111 18.8508 4.13344 17.3962 2.57311 14.5949C2.11431 13.7881 1.82438 12.8995 1.72034 11.9813C1.67999 11.7092 1.66232 11.4343 1.66751 11.1594C1.67803 7.77257 4.08936 4.84924 7.46335 4.13294ZM10.7612 1.66737C14.5702 1.7814 17.7536 4.54652 18.3305 8.24221C18.3342 8.26428 18.3342 8.28678 18.3305 8.30885L18.3295 8.41318C18.317 8.5511 18.2604 8.68263 18.1663 8.78823C18.0488 8.92023 17.8825 9.00084 17.7042 9.01224L11.3046 9.43427L11.1992 9.43637C11.0245 9.42784 10.857 9.3599 10.7265 9.24245C10.5699 9.10152 10.4812 8.90234 10.482 8.69386L10.0519 2.40778V2.30413C10.0597 2.12733 10.1389 1.96086 10.2719 1.84141C10.405 1.72196 10.5811 1.65934 10.7612 1.66737Z" fill=""/>
</g>
<defs>
<clipPath id="clip0_3504_8509">
<rect width="20" height="20" fill=""/>
</clipPath>
</defs>
</svg>
