<svg width="20" height="20" viewBox="0 0 20 20" fill="none" xmlns="http://www.w3.org/2000/svg">
<path fill-rule="evenodd" clip-rule="evenodd" d="M2.73161 13.7115C2.83158 13.573 3.06121 13.3497 3.06121 13.3497C3.87382 12.4827 5.89495 11.1768 6.92036 10.7574C6.92036 10.7486 7.53007 10.4999 7.82007 10.4902H7.85868C8.30309 10.4902 8.7188 10.7389 8.9316 11.1387C9.01933 11.3036 9.10093 11.7045 9.14029 11.8979C9.15333 11.962 9.16173 12.0033 9.1642 12.0057C9.2513 12.5773 9.30871 13.454 9.30871 14.4166C9.30871 15.427 9.2513 16.3418 9.1444 16.9045C9.1444 16.9143 9.0385 17.4283 8.9702 17.5999C8.86429 17.8476 8.6703 18.0573 8.42879 18.1909C8.23578 18.2865 8.03189 18.3333 7.82007 18.3333C7.59737 18.3245 7.18167 18.1812 7.01736 18.1149C5.93355 17.6955 3.86392 16.3233 3.0711 15.4845C2.98268 15.3974 2.89005 15.2983 2.8256 15.2293C2.79121 15.1925 2.76483 15.1642 2.7514 15.151C2.5871 14.9413 2.5 14.6838 2.5 14.4069C2.5 14.1601 2.5772 13.9124 2.73161 13.7115ZM8.46815 4.80946C8.90465 4.80946 9.25801 5.15763 9.25801 5.58773C9.25801 6.01782 8.90465 6.36599 8.46815 6.36599L4.65246 6.58055C4.09619 6.58055 3.64583 6.13583 3.64583 5.58773C3.64583 5.03963 4.09619 4.59588 4.65246 4.59588L8.46815 4.80946ZM11.0297 2.40005C11.1366 2.15233 11.3296 1.94265 11.5711 1.80904C11.7641 1.71346 11.968 1.66665 12.1808 1.66665C12.4025 1.67542 12.8192 1.81879 12.9835 1.88608C14.0664 2.30447 16.1361 3.67766 16.9299 4.51542C17.0162 4.60107 17.1069 4.69835 17.1712 4.76717L17.1712 4.76719L17.1712 4.76722C17.2071 4.80572 17.2347 4.83531 17.2486 4.84896C17.4129 5.05962 17.5 5.31611 17.5 5.59212C17.5 5.84081 17.4228 6.08853 17.2674 6.28846C17.1684 6.42695 16.9388 6.65029 16.9388 6.65029C16.1271 7.51828 14.105 8.82319 13.0795 9.24256C13.0795 9.25231 12.4708 9.50003 12.1808 9.50978H12.1422C11.6968 9.50978 11.2811 9.26206 11.0683 8.86123C10.9814 8.69672 10.8996 8.29705 10.8599 8.10317L10.8599 8.10316C10.8467 8.03844 10.8381 7.99665 10.8357 7.99421C10.7486 7.4227 10.6911 6.54593 10.6911 5.58334C10.6911 4.57296 10.7486 3.65815 10.8555 3.09542C10.8555 3.08664 10.9614 2.5717 11.0297 2.40005ZM10.7421 14.412C10.7421 14.8421 11.0955 15.1903 11.532 15.1903L15.3476 15.4049C15.9038 15.4049 16.3542 14.9601 16.3542 14.412C16.3542 13.8639 15.9038 13.4202 15.3476 13.4202L11.532 13.6338C11.0955 13.6338 10.7421 13.9819 10.7421 14.412Z" fill=""/>
</svg>
