<svg width="16" height="16" viewBox="0 0 16 16" fill="none" xmlns="http://www.w3.org/2000/svg">
<path fill-rule="evenodd" clip-rule="evenodd" d="M11.4813 0.748047C13.9615 0.748047 15.979 2.76555 15.979 5.24655V10.6293C15.979 13.1095 13.9615 15.1278 11.4813 15.1278H4.99826C2.51801 15.1278 0.499756 13.1095 0.499756 10.6293V5.24655C0.499756 2.76555 2.51801 0.748047 4.99826 0.748047H11.4813ZM11.4813 1.87305H4.99826C3.13826 1.87305 1.62476 3.38655 1.62476 5.24655V10.6293C1.62476 12.4893 3.13826 14.0028 4.99826 14.0028H11.4813C13.3413 14.0028 14.854 12.4893 14.854 10.6293V10.4193L12.3806 10.4197C10.9578 10.4197 9.79983 9.2625 9.79908 7.8405C9.79908 6.417 10.9571 5.259 12.3806 5.25825L14.854 5.2578V5.24655C14.854 3.38655 13.3413 1.87305 11.4813 1.87305ZM14.854 6.3828L12.3806 6.38325C11.5773 6.384 10.9241 7.03725 10.9241 7.83975C10.9241 8.6415 11.5781 9.29475 12.3806 9.29475L14.854 9.2943V6.3828ZM12.7238 7.23075C13.0343 7.23075 13.2863 7.48275 13.2863 7.79325C13.2863 8.10375 13.0343 8.35575 12.7238 8.35575H12.4898C12.1793 8.35575 11.9273 8.10375 11.9273 7.79325C11.9273 7.48275 12.1793 7.23075 12.4898 7.23075H12.7238ZM8.51351 4.15162C8.82401 4.15162 9.07601 4.40362 9.07601 4.71412C9.07601 5.02462 8.82401 5.27662 8.51351 5.27662H4.46426C4.15376 5.27662 3.90176 5.02462 3.90176 4.71412C3.90176 4.40362 4.15376 4.15162 4.46426 4.15162H8.51351Z" fill="#355FE5"/>
</svg>
